<?xml version="1.0" encoding="UTF-8"?>
<svg id="Capa_2" data-name="Capa 2" xmlns="http://www.w3.org/2000/svg" viewBox="0 0 1009.83 260.48">
  <defs>
    <style>
    @font-face {
  font-family: 'Rodina-Regular';
  src: url('./assets/fonts/Rodina-Regular.woff.ttf') format('woff2'), /* primeramente intenta con WOFF2, que es más eficiente */
       url('./assets/fonts/Rodina-Regular.woff.ttf') format('woff'); /* si WOFF2 no es soportado, intenta con WOFF */
}


      .cls-1 {
        letter-spacing: .27em;
      }

      .cls-2 {
        font-family: Rodina-Regular, Rodina;
        font-size: 40px;
      }

      .cls-2, .cls-3 {
        fill: #fff;
      }

      .cls-4 {
        letter-spacing: .29em;
      }

      .cls-5 {
        letter-spacing: .3em;
      }

      .cls-6 {
        letter-spacing: .32em;
      }

      .cls-3, .cls-7 {
        stroke-width: 0px;
      }

      .cls-7 {
        fill: #ffe100;
      }

      .cls-8 {
        letter-spacing: .28em;
      }
    </style>
  </defs>
  <g id="Capa_1-2" data-name="Capa 1">
    <text class="cls-2" transform="translate(1.34 252) scale(.99) skewX(-9)"><tspan class="cls-5" x="0" y="0">RE</tspan><tspan class="cls-4" x="60.75" y="0">N</tspan><tspan class="cls-5" x="92.69" y="0">T A </tspan><tspan class="cls-1" x="205.23" y="0">C</tspan><tspan class="cls-8" x="236.83" y="0">A</tspan><tspan class="cls-5" x="270.59" y="0" xml:space="preserve">R  -  </tspan><tspan class="cls-6" x="418.9" y="0">ai</tspan><tspan class="cls-5" x="468.5" y="0">na</tspan><tspan class="cls-4" x="527.97" y="0">c</tspan><tspan class="cls-6" x="557.36" y="0">a</tspan><tspan class="cls-1" x="587.94" y="0">r</tspan><tspan class="cls-5" x="610.37" y="0">.</tspan><tspan class="cls-4" x="628.58" y="0">c</tspan><tspan class="cls-5" x="657.97" y="0">at</tspan></text>
    <path class="cls-7" d="M791.91,253.82c-1.61,0-2.35-2.02-1.13-3.07,1.14-.99,2.09-1.8,3.07-2.57,28.26-22.25,57.03-43.89,84.67-66.88,39.28-32.68,73.31-70.25,99.9-114.15,10.31-17.03,18-35.26,23.45-54.42.23-.8.23-1.85.75-2.34.91-.84,1.93-1.55,2.96-2.26.73-.51,1.73-.39,2.32.28.97,1.08,2.02,2.18,1.91,3.13-1,8.74-1.88,17.56-3.9,26.1-6.4,27-20.26,50.52-35.29,73.44-21.54,32.85-46.53,62.88-73.98,90.92-14.91,15.23-29.54,30.74-44.71,45.71-3.06,3.02-7.93,5.69-12.07,5.86-15.96.67-31.97.28-47.96.25h0Z"/>
    <path class="cls-3" d="M866.1,254.85c50.03-49.71,99.2-100.13,133.73-162.6.41.22.83.43,1.24.65-1.55,4.59-2.98,9.23-4.67,13.77-14.93,40.1-36.78,76.33-61.96,110.69-8.17,11.15-16.46,22.21-24.53,33.43-2.66,3.69-5.71,5.51-10.44,5.39-10.91-.29-21.84-.09-32.76-.09-.2-.41-.4-.82-.59-1.23Z"/>
    <path class="cls-3" d="M97.36,125.69c-7.33,0-14.67.18-21.99-.08-3.38-.12-5.03,1.18-6.48,4.09-7.09,14.12-14.2,28.24-21.78,42.11-1.47,2.69-4.85,5.63-7.68,6.03-6.83.95-13.9.91-20.81.39-5.54-.42-6.69-3.3-4.11-8.33C42.06,116.34,69.67,62.82,97.14,9.24c2.04-3.98,5.26-5.69,9.13-5.9,6.97-.38,13.97-.33,20.95-.11,4.93.15,7.49,2.81,8.49,7.97,10.11,52.23,20.42,104.41,30.71,156.6,1.53,7.74-.55,10.49-8.43,10.63-5.33.09-10.67.14-15.99-.04-4.8-.16-7.86-2.06-8.79-7.52-2.34-13.76-5.3-27.41-7.93-41.12-.55-2.85-1.7-4.23-4.93-4.13-7.66.24-15.33.08-22.99.08ZM118.61,96.05c-3.01-15.06-5.87-29.39-8.74-43.73-.37-.01-.74-.02-1.11-.04-7.4,14.4-14.8,28.81-22.49,43.77h32.34Z"/>
    <path class="cls-3" d="M469.83,40.86c15.54-.39,31.13,3.25,46.25,9.38,3.08,1.25,3.77,2.79,3.25,6.03-6,37.09-11.86,74.2-17.68,111.32-1.41,8.97-2.07,9.96-11.02,11.05-7.27.89-14.54,1.36-21.4-2.42-1.12-.62-3.13.17-4.67.54-15.6,3.73-31.03,4.02-45.87-2.92-20.79-9.72-31.91-32.01-28.04-55.58,1.05-6.4,1.99-12.82,3.2-19.18,5.98-31.33,37.73-60.63,75.98-58.22ZM449.96,147.13c9.12,0,15.28-1.57,21.16-6.02,1.51-1.15,2.87-3.26,3.19-5.11,3.07-18.03,5.82-36.12,8.88-54.15.66-3.9-.32-5.96-4.29-6.66-4.25-.75-8.41-2.14-12.68-2.58-20.5-2.13-36.99,10.2-40.86,30.38-.78,4.08-1.05,8.27-1.98,12.31-4.45,19.24,9.66,33.5,26.59,31.83Z"/>
    <path class="cls-3" d="M689.1,124.55c1.78-13.2,2.2-29.12,10.04-43.15,15.61-27.94,39.32-41.88,71.72-40.66,15.33.58,29.95,3.72,44.12,9.47,3,1.21,3.92,2.64,3.38,5.96-6.02,37.25-11.9,74.53-17.76,111.81-1.35,8.59-2.1,9.59-10.86,10.66-7.26.88-14.54,1.41-21.41-2.35-1.14-.62-3.14.06-4.66.46-11.63,3.06-23.37,3.6-35.06.83-24.59-5.83-39.81-25.55-39.51-53.02ZM749.32,147.1c7.44.65,14.54-1.46,20.8-6,1.53-1.11,2.87-3.25,3.19-5.11,3.07-18.03,5.86-36.11,8.85-54.16.57-3.44.18-5.8-3.79-6.52-4.41-.8-8.73-2.25-13.17-2.71-20.5-2.14-36.98,10.2-40.85,30.39-.78,4.08-1.05,8.27-1.98,12.31-4.45,19.23,9.66,33.5,26.95,31.79Z"/>
    <path class="cls-3" d="M609.14,147.3c12.9.86,24.95-3.42,35.02-13.55,4.96-5,13.65-3.55,20.1,2.7,5.47,5.29,5.91,10.13.75,16.23-12.64,14.93-29.2,22.9-48.28,25.6-13.27,1.87-26.6,1.63-39.58-2.35-26.14-8.01-44.26-31.54-44.44-60.57-.12-19.27,2.34-38.71,10.66-56.48,14.02-29.96,37.11-49.34,70.03-55.16,18.96-3.35,37.9-2.59,55.07,8.08,6.76,4.21,12.37,9.59,16.01,16.77,2.58,5.1,2.29,9.47-2.12,13.11-4.14,3.42-8.96,6.32-13.94,8.31-4.49,1.79-9.01,1.01-12.15-3.9-4.18-6.54-10.63-9.86-18.2-11.12-36.98-6.15-61.29,13.94-68.45,41.16-2.89,11-4.57,22.62-4.72,33.99-.28,20.97,15.64,36.43,36.54,37.17,2.16.08,4.33.01,7.68.01Z"/>
    <path class="cls-3" d="M315.38,40.87c17.73-.99,33.06,4.02,44.74,17.78,10.62,12.52,13.38,27.33,11.06,43.13-3.3,22.54-7.07,45.01-10.59,67.52-1.04,6.64-2.46,8.48-9.05,9.08-5.26.48-10.63.59-15.88.1-7.24-.67-8.23-2.28-7.12-9.35,3.33-21.19,6.07-42.51,10.25-63.54,3.7-18.64-6.42-35.11-29.86-33.1-.66.06-1.33.1-1.99.19-17.82,2.39-17.64,2.43-20.29,20.07-3.91,25.99-8.2,51.92-12.14,77.9-.81,5.34-3.93,7.51-8.75,7.72-5.49.23-11,.21-16.49.03-6.01-.2-7.73-2.27-6.8-8.21,4.44-28.26,8.97-56.51,13.45-84.77,1.51-9.53,3.12-19.04,4.43-28.6.48-3.52,1.86-5.46,5.39-6.71,16.13-5.69,32.53-9.65,49.65-9.24Z"/>
    <path class="cls-3" d="M828.18,172.23c2.19-13.97,4.36-27.94,6.58-41.9,3.85-24.31,7.82-48.61,11.5-72.95.57-3.76,1.93-5.82,5.54-7.22,19.58-7.61,39.79-10.64,60.71-9.01,8.16.63,10.1,3.01,8.17,10.88-.98,3.99-2.56,7.91-4.35,11.62-2.98,6.16-6.69,10.03-15.05,9.19-7.35-.74-15.08,1.57-22.54,3.08-1.61.33-3.66,2.85-3.95,4.62-4.91,29.87-9.65,59.77-14.21,89.7-.75,4.94-3.17,7.78-7.89,8.05-6.27.36-12.6.34-18.87-.02-3.29-.19-6.3-1.63-5.64-6.03Z"/>
    <path class="cls-3" d="M197.22,178.43c-2.5,0-5,.09-7.49-.02-6.82-.29-8.12-2.03-7.04-8.71,2.61-16.07,5.12-32.16,7.69-48.24,3.93-24.62,7.95-49.22,11.71-73.86.62-4.04,2.61-6.24,6.3-6.41,6.94-.31,13.91-.31,20.85-.06,4.1.15,5.48,2.42,4.78,6.78-6.61,41.18-13.06,82.39-19.45,123.61-.69,4.47-3.36,6.36-7.36,6.71-3.3.29-6.65.06-9.98.06,0,.04,0,.09,0,.13Z"/>
    <path class="cls-3" d="M220.35,28.45c-.67,0-1.33,0-2,0-10.47,0-15.04-3.14-14.89-10.24.24-11.64,5.94-18.13,15.98-18.17,4.16-.02,8.33-.1,12.49.03,5.79.17,10.07,4.72,9.59,10.46-.92,11.04-4.73,19.03-18.67,17.93-.83-.07-1.66,0-2.5,0Z"/>
  </g>
</svg>